<?xml version="1.0" encoding="UTF-8" standalone="no"?>
<!-- Generator: Adobe Illustrator 12.0.0, SVG Export Plug-In . SVG Version: 6.00 Build 51448)  -->

<svg
   version="1.1"
   id="Layer_1"
   width="110"
   height="110"
   viewBox="28.386 1.317 110 110"
   overflow="visible"
   enable-background="new 28.386 1.317 147 147"
   xml:space="preserve"
   style="-webkit-filter:drop-shadow(0px 0px 5px rgba(0, 0, 0, 0.7))"
   sodipodi:docname="forkme_right_darkblue_121621.svg"
   inkscape:version="1.4.4 (dcaf3e7d9e, 2026-05-05)"
   xmlns:inkscape="http://www.inkscape.org/namespaces/inkscape"
   xmlns:sodipodi="http://sodipodi.sourceforge.net/DTD/sodipodi-0.dtd"
   xmlns="http://www.w3.org/2000/svg"
   xmlns:svg="http://www.w3.org/2000/svg"><defs
   id="defs19" /><sodipodi:namedview
   id="namedview19"
   pagecolor="#ffffff"
   bordercolor="#000000"
   borderopacity="0.25"
   inkscape:showpageshadow="2"
   inkscape:pageopacity="0.0"
   inkscape:pagecheckerboard="0"
   inkscape:deskcolor="#d1d1d1"
   inkscape:zoom="4"
   inkscape:cx="108.875"
   inkscape:cy="49.125"
   inkscape:window-width="1697"
   inkscape:window-height="1190"
   inkscape:window-x="2624"
   inkscape:window-y="463"
   inkscape:window-maximized="0"
   inkscape:current-layer="g19" />
<g
   id="g19">
	<g
   id="g18"
   transform="translate(4.908e-4,-19.9995)">
		<g
   id="g17"
   transform="translate(-6.4439373,18.052553)">
			
			<linearGradient
   id="balk_5_"
   gradientUnits="userSpaceOnUse"
   x1="125.5657"
   y1="662.85278"
   x2="105.6487"
   y2="682.76978"
   gradientTransform="translate(0,-614.7715)">
				<stop
   offset="0"
   style="stop-color:#121621"
   id="stop1" />
				<stop
   offset="1"
   style="stop-color:#121621"
   id="stop2" />
			</linearGradient>
			<polygon
   id="balk"
   fill="url(#balk_5_)"
   points="55.591,-21.892 195.539,118.055 175.622,137.972 35.676,-1.977 "
   style="fill:url(#balk_5_)"
   transform="translate(-16,-10)" />
			<g
   id="letters"
   transform="translate(-16,-10)">
				<path
   fill="#ffffff"
   d="m 82.988,18.34 c 0.518,-0.516 0.858,-0.888 1.026,-1.115 l 3.66,3.66 -1.271,1.272 c -0.145,-0.19 -0.414,-0.482 -0.811,-0.879 l -1.38,-1.38 -1.779,1.778 1.152,1.152 c 0.35,0.349 0.619,0.597 0.809,0.741 l -1.25,1.25 c -0.129,-0.176 -0.342,-0.41 -0.638,-0.706 l -1.255,-1.256 -2.388,2.388 c -0.448,0.448 -0.772,0.803 -0.973,1.061 l -1.479,-1.48 c 0.25,-0.19 0.623,-0.532 1.116,-1.026 z"
   id="path2" />
				<path
   fill="#ffffff"
   d="m 82.625,31.194 c -0.73,-0.729 -1.024,-1.531 -0.88,-2.406 0.137,-0.76 0.588,-1.522 1.354,-2.29 1.716,-1.716 3.278,-1.871 4.687,-0.463 1.392,1.392 1.229,2.944 -0.487,4.661 -0.759,0.76 -1.52,1.207 -2.278,1.345 -0.876,0.157 -1.674,-0.126 -2.396,-0.847 z m 4.032,-4.056 c -0.351,-0.349 -0.747,-0.413 -1.195,-0.19 -0.258,0.121 -0.611,0.405 -1.06,0.854 -0.447,0.448 -0.732,0.801 -0.854,1.061 -0.22,0.447 -0.157,0.847 0.192,1.193 0.349,0.349 0.741,0.416 1.183,0.204 0.258,-0.122 0.615,-0.411 1.071,-0.866 0.446,-0.447 0.731,-0.801 0.854,-1.06 0.221,-0.45 0.158,-0.846 -0.191,-1.196 z"
   id="path3" />
				<path
   fill="#ffffff"
   d="m 85.557,33.971 c 0.174,-0.13 0.444,-0.376 0.811,-0.741 l 3.544,-3.544 c 0.355,-0.355 0.593,-0.613 0.708,-0.772 l 1.248,1.249 -0.346,0.341 c 0.492,-0.038 0.898,0.102 1.217,0.42 0.137,0.136 0.254,0.313 0.354,0.531 l -1.29,1.29 C 91.744,32.41 91.636,32.162 91.476,32.004 91.264,31.792 90.923,31.671 90.455,31.642 l -2.771,2.771 c -0.388,0.388 -0.658,0.68 -0.811,0.876 z"
   id="path4" />
				<path
   fill="#ffffff"
   d="m 88.84,37.253 c 0.174,-0.13 0.444,-0.376 0.809,-0.741 l 6.086,-6.086 c 0.357,-0.356 0.595,-0.615 0.708,-0.773 l 1.293,1.293 c -0.167,0.122 -0.417,0.351 -0.752,0.685 l -3.201,3.202 1.801,-0.249 c 0.258,-0.03 0.475,-0.08 0.647,-0.148 l 1.474,1.472 -3.488,0.432 -1.469,4.822 -1.334,-1.334 c 0.083,-0.146 0.188,-0.427 0.317,-0.846 l 0.957,-3.055 -1.744,1.744 c -0.388,0.388 -0.656,0.68 -0.81,0.876 z"
   id="path5" />
				<path
   fill="#ffffff"
   d="m 103.463,42.625 c 0.691,0.068 1.301,0.365 1.825,0.89 0.594,0.595 0.775,1.311 0.549,2.146 -0.196,0.684 -0.637,1.367 -1.32,2.052 l -1.562,1.561 c -0.519,0.519 -0.854,0.882 -1.004,1.094 l -1.359,-1.359 c 0.28,-0.207 0.656,-0.545 1.128,-1.017 l 1.54,-1.54 c 0.836,-0.836 1.027,-1.482 0.573,-1.938 -0.312,-0.31 -0.603,-0.479 -0.874,-0.51 -0.252,0.388 -0.575,0.78 -0.971,1.175 l -1.563,1.563 c -0.518,0.517 -0.853,0.881 -1.005,1.093 l -1.37,-1.37 c 0.28,-0.207 0.656,-0.545 1.127,-1.017 l 1.551,-1.529 c 0.479,-0.479 0.766,-0.852 0.856,-1.117 0.092,-0.266 0.021,-0.516 -0.214,-0.75 -0.229,-0.227 -0.55,-0.343 -0.967,-0.35 l -2.841,2.84 c -0.129,0.129 -0.271,0.281 -0.423,0.456 -0.15,0.174 -0.24,0.271 -0.263,0.296 L 95.55,43.968 c 0.152,-0.105 0.402,-0.335 0.752,-0.684 l 3.555,-3.558 c 0.411,-0.409 0.666,-0.687 0.767,-0.831 l 1.249,1.271 -0.371,0.356 c 0.6,0.069 1.048,0.253 1.344,0.55 0.449,0.45 0.655,0.968 0.617,1.553 z"
   id="path6" />
				<path
   fill="#ffffff"
   d="m 108.686,52.813 -2.528,-2.528 c -0.669,0.79 -0.674,1.516 -0.013,2.177 0.435,0.433 0.923,0.702 1.473,0.808 l -1.221,1.219 c -0.631,-0.281 -1.125,-0.602 -1.48,-0.957 -0.753,-0.754 -1.081,-1.592 -0.982,-2.511 0.083,-0.874 0.526,-1.713 1.332,-2.518 0.685,-0.684 1.424,-1.096 2.221,-1.24 0.884,-0.15 1.643,0.092 2.279,0.731 0.624,0.624 0.893,1.313 0.8,2.074 -0.091,0.715 -0.471,1.404 -1.139,2.072 -0.26,0.258 -0.507,0.483 -0.742,0.673 z m 0.067,-3.734 c -0.441,-0.441 -0.964,-0.392 -1.569,0.154 l 1.403,1.402 c 0.559,-0.588 0.614,-1.106 0.166,-1.556 z"
   id="path7" />
				<path
   fill="#ffffff"
   d="m 111.427,59.995 c -0.729,-0.73 -1.022,-1.532 -0.88,-2.407 0.137,-0.759 0.588,-1.522 1.354,-2.29 1.719,-1.716 3.278,-1.871 4.688,-0.463 1.392,1.392 1.229,2.946 -0.486,4.662 -0.76,0.759 -1.52,1.207 -2.277,1.344 -0.878,0.159 -1.677,-0.123 -2.399,-0.846 z m 4.032,-4.054 c -0.351,-0.35 -0.746,-0.412 -1.194,-0.191 -0.259,0.122 -0.61,0.407 -1.06,0.854 -0.449,0.448 -0.733,0.803 -0.854,1.061 -0.221,0.447 -0.157,0.846 0.191,1.194 0.35,0.35 0.743,0.415 1.184,0.203 0.259,-0.122 0.615,-0.41 1.07,-0.866 0.448,-0.447 0.732,-0.802 0.854,-1.06 0.221,-0.45 0.158,-0.847 -0.191,-1.195 z"
   id="path8" />
				<path
   fill="#ffffff"
   d="m 121.826,60.032 c 0.624,0.606 0.833,1.349 0.628,2.222 -0.176,0.737 -0.602,1.443 -1.275,2.12 l -1.562,1.562 c -0.518,0.518 -0.853,0.881 -1.005,1.093 l -1.369,-1.369 c 0.195,-0.152 0.567,-0.495 1.114,-1.028 l 1.553,-1.527 c 0.865,-0.852 1.021,-1.555 0.471,-2.105 -0.25,-0.25 -0.633,-0.382 -1.149,-0.396 l -2.805,2.807 c -0.13,0.13 -0.271,0.279 -0.423,0.457 -0.152,0.174 -0.24,0.271 -0.263,0.295 l -1.326,-1.325 c 0.149,-0.107 0.399,-0.335 0.751,-0.687 l 3.499,-3.5 c 0.438,-0.438 0.711,-0.731 0.811,-0.876 l 1.261,1.262 -0.411,0.408 c 0.642,0.031 1.144,0.229 1.5,0.587 z"
   id="path9" />
				<path
   fill="#ffffff"
   d="m 126.559,73.696 c -0.28,0.082 -0.627,0.062 -1.037,-0.063 -0.501,-0.152 -0.965,-0.44 -1.39,-0.866 -1.886,-1.886 -1.509,-4.146 1.13,-6.783 1.254,-1.255 2.479,-1.945 3.671,-2.074 1.194,-0.129 2.31,0.321 3.343,1.356 0.595,0.594 0.916,1.296 0.971,2.109 l -1.301,1.299 c -0.064,-0.908 -0.366,-1.632 -0.906,-2.172 -1.119,-1.119 -2.565,-0.791 -4.34,0.983 -1.8,1.798 -2.244,3.147 -1.341,4.055 0.737,0.736 1.563,0.649 2.476,-0.263 0.099,-0.084 0.388,-0.389 0.867,-0.91 l 1.393,1.392 c -0.354,0.298 -0.732,0.645 -1.127,1.039 l -1.322,1.321 c -0.212,0.213 -0.4,0.416 -0.567,0.613 -0.168,0.196 -0.286,0.329 -0.354,0.397 -0.066,-0.038 -0.146,-0.118 -0.239,-0.239 z"
   id="path10" />
				<path
   fill="#ffffff"
   d="m 127.679,76.093 c 0.167,-0.138 0.434,-0.388 0.797,-0.753 l 3.545,-3.545 c 0.357,-0.356 0.599,-0.611 0.721,-0.763 l 1.279,1.28 c -0.157,0.13 -0.403,0.361 -0.738,0.695 l -3.498,3.499 c -0.39,0.388 -0.661,0.677 -0.821,0.865 z m 6.595,-5.292 c -0.219,-0.22 -0.32,-0.49 -0.312,-0.813 0.013,-0.321 0.133,-0.599 0.361,-0.825 0.234,-0.236 0.516,-0.359 0.838,-0.373 0.322,-0.013 0.595,0.092 0.813,0.313 0.212,0.211 0.313,0.479 0.301,0.805 -0.014,0.32 -0.137,0.602 -0.372,0.838 -0.229,0.229 -0.505,0.348 -0.825,0.359 -0.324,0.008 -0.59,-0.093 -0.804,-0.304 z"
   id="path11" />
				<path
   fill="#ffffff"
   d="m 136.453,74.746 0.981,0.982 -1.104,1.104 c -0.037,-0.037 -0.104,-0.111 -0.198,-0.222 -0.094,-0.109 -0.187,-0.209 -0.276,-0.301 l -0.484,-0.483 -2.12,2.12 c -0.509,0.51 -0.598,0.931 -0.265,1.265 0.235,0.235 0.514,0.382 0.834,0.44 l -1.141,1.141 c -0.434,-0.13 -0.848,-0.394 -1.243,-0.788 -0.557,-0.556 -0.742,-1.138 -0.562,-1.746 0.137,-0.455 0.522,-1.003 1.162,-1.641 l 2.039,-2.039 0.011,0.011 0.022,-0.021 -0.161,-0.184 c -0.102,-0.1 -0.241,-0.219 -0.427,-0.356 l 1.105,-1.104 0.563,0.563 0.446,-0.445 c 0.214,-0.214 0.374,-0.396 0.482,-0.549 l 1.326,1.326 c -0.169,0.122 -0.345,0.273 -0.526,0.458 z"
   id="path12" />
				<path
   fill="#ffffff"
   d="m 142.807,81.917 0.376,0.377 -1.248,1.248 -0.377,-0.376 -2.604,2.604 c -0.357,0.356 -0.608,0.639 -0.753,0.843 l -1.491,-1.492 c 0.226,-0.168 0.529,-0.441 0.909,-0.82 l 2.538,-2.538 -2.077,-2.077 -2.527,2.526 c -0.409,0.41 -0.688,0.717 -0.832,0.921 l -1.479,-1.479 c 0.212,-0.152 0.49,-0.403 0.842,-0.754 l 6.006,-6.007 c 0.35,-0.35 0.601,-0.631 0.754,-0.842 l 1.48,1.48 c -0.222,0.159 -0.5,0.411 -0.844,0.753 l -2.15,2.151 2.077,2.076 1.991,-1.993 c 0.463,-0.463 0.769,-0.797 0.912,-1.001 l 1.492,1.492 c -0.197,0.139 -0.443,0.354 -0.739,0.65 z"
   id="path13" />
				<path
   fill="#ffffff"
   d="m 141.046,89.549 c -0.6,-0.599 -0.775,-1.309 -0.532,-2.128 0.206,-0.66 0.658,-1.34 1.356,-2.039 l 1.562,-1.562 c 0.519,-0.518 0.854,-0.881 1.004,-1.094 l 1.37,1.37 c -0.188,0.146 -0.562,0.488 -1.116,1.027 l -1.551,1.528 c -0.434,0.435 -0.696,0.795 -0.788,1.082 -0.123,0.35 -0.033,0.675 0.27,0.976 0.212,0.212 0.572,0.323 1.089,0.336 l 2.805,-2.806 c 0.13,-0.13 0.271,-0.285 0.423,-0.468 0.153,-0.183 0.236,-0.279 0.252,-0.297 l 1.326,1.326 c -0.144,0.114 -0.391,0.348 -0.74,0.696 l -3.485,3.486 c -0.449,0.447 -0.728,0.739 -0.833,0.877 l -1.249,-1.249 0.412,-0.407 c -0.657,-0.04 -1.181,-0.26 -1.575,-0.654 z"
   id="path14" />
				<path
   fill="#ffffff"
   d="m 146.694,95.174 c -0.41,-0.411 -0.605,-0.902 -0.586,-1.472 l -0.408,0.409 -1.204,-1.203 c 0.149,-0.107 0.399,-0.336 0.751,-0.688 l 6.027,-6.027 c 0.447,-0.447 0.724,-0.743 0.821,-0.889 l 1.293,1.293 c -0.152,0.121 -0.444,0.399 -0.877,0.832 l -1.976,1.99 c 0.567,0.131 1.021,0.363 1.354,0.697 0.604,0.602 0.81,1.339 0.618,2.213 -0.175,0.752 -0.592,1.46 -1.253,2.12 -0.676,0.676 -1.417,1.11 -2.223,1.309 -0.947,0.221 -1.727,0.026 -2.337,-0.584 z m 3.761,-4.105 c -0.252,-0.252 -0.643,-0.391 -1.167,-0.412 l -1.979,1.976 c 0.01,0.479 0.131,0.839 0.367,1.075 0.299,0.299 0.688,0.357 1.167,0.185 0.381,-0.136 0.75,-0.384 1.108,-0.741 0.863,-0.864 1.03,-1.557 0.504,-2.083 z"
   id="path15" />
			</g>
			<g
   opacity="0.5"
   id="g16"
   transform="translate(-16,-10)">
				<line
   fill="none"
   stroke="#ffffff"
   stroke-dasharray="3, 1.5"
   x1="30.705"
   y1="-9.8610001"
   x2="185.08"
   y2="144.51401"
   id="line15" />
				<line
   fill="none"
   stroke="#ffffff"
   stroke-dasharray="3, 1.5"
   x1="46.580002"
   y1="-27.986"
   x2="200.955"
   y2="126.389"
   id="line16" />
			</g>
		</g>
	</g>
</g>
</svg>
